<svg xmlns="http://www.w3.org/2000/svg" width="40" height="40" fill="none" viewBox="0 0 40 40"><circle cx="20" cy="20" r="17.778" fill="#F4F2F6"/><path fill="#fff" stroke="#4D3951" stroke-width=".778" d="M10.446 13.668a.89.89 0 0 1 .89-.89h16.91a.89.89 0 0 1 .89.89v9.79h-18.69z"/><path fill="#6750A4" stroke="#4D3951" stroke-width=".778" d="M8.889 23.547c0-.05.04-.089.089-.089h21.628c.049 0 .088.04.088.089v.356c0 .737-.597 1.335-1.335 1.335H10.224a1.335 1.335 0 0 1-1.335-1.335z"/><rect width="4.444" height="11.688" x="21.111" y="27.778" fill="#fff" stroke="#4D3951" stroke-width=".778" rx=".417" transform="rotate(-90 21.1111 27.7778)"/><circle cx="30.336" cy="25.556" r="1.111" fill="#6750A4" stroke="#4D3951" stroke-width=".778" transform="rotate(-90 30.3362 25.5556)"/><path stroke="#4D3951" stroke-linecap="round" stroke-width=".778" d="M23.947 26.667v-2.222M25.058 26.667v-2.222"/><rect width="4.444" height="11.688" x="23.889" y="23.333" fill="#fff" stroke="#4D3951" stroke-width=".778" rx=".417" transform="rotate(-90 23.8889 23.3333)"/><circle cx="33.114" cy="21.111" r="1.111" fill="#6750A4" stroke="#4D3951" stroke-width=".778" transform="rotate(-90 33.114 21.1111)"/><path stroke="#4D3951" stroke-linecap="round" stroke-width=".778" d="M26.725 22.222V20M27.836 22.222V20"/></svg>