<svg width="57" height="56" viewBox="0 0 57 56" fill="none" xmlns="http://www.w3.org/2000/svg">
<circle cx="28.5" cy="28" r="26" fill="#EBF3FE"/>
<rect x="12.2109" y="19.7656" width="27.3472" height="20.5312" rx="1.26736" fill="white" stroke="#190A28"/>
<path d="M12.2109 36.0195H39.5581V39.0295C39.5581 39.7295 38.9907 40.2969 38.2907 40.2969H13.4783C12.7784 40.2969 12.2109 39.7295 12.2109 39.0295V36.0195Z" fill="#0074E8" stroke="#190A28"/>
<path d="M24.1754 40.297H27.5938L28.1635 43.7189H23.6057L24.1754 40.297Z" stroke="#190A28"/>
<path d="M22.4662 43.7188H29.303" stroke="#190A28" stroke-linecap="round"/>
<ellipse cx="7.70878" cy="7.75143" rx="7.70878" ry="7.75143" transform="matrix(-1 0 0 1 46.4296 12.9219)" fill="white" stroke="#190A28"/>
<mask id="mask0_11703_405257" style="mask-type:alpha" maskUnits="userSpaceOnUse" x="30" y="12" width="17" height="17">
<ellipse cx="7.70878" cy="7.75143" rx="7.70878" ry="7.75143" transform="matrix(-1 0 0 1 46.4296 12.9219)" fill="#D9D9D9" stroke="#190A28"/>
</mask>
<g mask="url(#mask0_11703_405257)">
<path d="M40.5433 16.5146C40.5434 16.5147 40.5433 16.5147 40.5433 16.5147C39.1989 16.035 37.6431 16.3295 36.5672 17.4114C35.4592 18.5255 35.1765 20.151 35.7156 21.5291C35.7323 21.5718 35.7228 21.6205 35.6905 21.653L28.5987 28.784C28.0291 29.3568 28.0291 30.279 28.5987 30.8517C29.1684 31.4245 30.0856 31.4245 30.6551 30.8517L37.7463 23.7213C37.7789 23.6885 37.8281 23.6789 37.8711 23.6959C39.2414 24.2374 40.8575 23.9529 41.9651 22.8392C42.9956 21.8029 43.3079 20.3237 42.913 19.0127C42.8888 18.9326 42.7883 18.9097 42.7292 18.9691L40.8558 20.8529C40.8266 20.8823 40.7837 20.8934 40.7439 20.882L39.0697 20.401C39.032 20.3901 39.0025 20.3606 38.9918 20.3228L38.5131 18.6382C38.5019 18.5987 38.5129 18.5562 38.5419 18.5271L40.5432 16.5146C40.5433 16.5146 40.5433 16.5146 40.5433 16.5146V16.5146Z" fill="#0074E8" stroke="#190A28"/>
</g>
</svg>
