<svg width="57" height="56" viewBox="0 0 57 56" fill="none" xmlns="http://www.w3.org/2000/svg">
<circle cx="28.5" cy="28" r="26" fill="#EBF3FE"/>
<rect x="14.9375" y="11.125" width="14.7679" height="29.0219" rx="1.11111" fill="white" stroke="#190A28"/>
<path d="M14.9375 12.2361C14.9375 11.6225 15.435 11.125 16.0486 11.125H28.5943C29.208 11.125 29.7054 11.6225 29.7054 12.2361V13.8458H14.9375V12.2361Z" fill="#0074E8" stroke="#190A28"/>
<ellipse cx="40.5022" cy="35.6497" rx="2.85673" ry="2.7208" fill="#0074E8" stroke="#190A28"/>
<path d="M26.0135 44.8749L25.0906 39.4333H27.8595V44.8749H26.0135Z" fill="white" stroke="#190A28" stroke-linecap="round" stroke-linejoin="round"/>
<path d="M38.003 28.4627C38.003 28.4249 38.0336 28.3943 38.0713 28.3943H39.5813C39.9586 28.3943 40.2645 28.7003 40.2645 29.0776V41.7119C40.2645 42.0892 39.9586 42.3951 39.5813 42.3951H38.0713C38.0336 42.3951 38.003 42.3646 38.003 42.3268V28.4627Z" fill="white" stroke="#190A28"/>
<path d="M38.003 28.4877C38.003 28.4415 37.958 28.4086 37.914 28.4226L29.5221 31.0868V39.7027L37.914 42.3669C37.958 42.3809 38.003 42.348 38.003 42.3018V28.4877Z" fill="white" stroke="#190A28"/>
<path d="M23.2444 32.2518C23.2444 31.8973 23.5156 31.6017 23.8688 31.5711L29.4637 31.0867V39.7025L23.8688 39.2181C23.5156 39.1875 23.2444 38.8919 23.2444 38.5374V32.2518Z" fill="white" stroke="#190A28"/>
<path d="M23.3026 32.7021H21.1589C20.7815 32.7021 20.4756 33.008 20.4756 33.3854V37.4038C20.4756 37.7811 20.7815 38.087 21.1589 38.087H23.3026V32.7021Z" fill="#0074E8" stroke="#190A28"/>
<path d="M17.7063 20.6476H26.9363" stroke="#190A28" stroke-linecap="round"/>
<path d="M17.7063 24.2755H26.9363" stroke="#190A28" stroke-linecap="round"/>
<path d="M17.7063 27.9034H21.3983" stroke="#190A28" stroke-linecap="round"/>
</svg>
