<svg width="57" height="56" viewBox="0 0 57 56" fill="none" xmlns="http://www.w3.org/2000/svg">
<circle cx="28.5" cy="28" r="26" fill="#EBF3FE"/>
<path d="M23.1878 25.469L18.5532 22.7164C18.4965 22.6826 18.4902 22.6031 18.541 22.5605L27.8463 14.7498L31.0358 15.9933C31.0969 16.0171 31.1165 16.0935 31.0744 16.1439L23.3118 25.4476C23.2813 25.4842 23.2286 25.4933 23.1878 25.469Z" fill="white"/>
<path d="M28.2023 14.444L27.8463 14.7498M27.8463 14.7498L18.541 22.5605C18.4902 22.6031 18.4965 22.6826 18.5532 22.7164L23.1878 25.469C23.2286 25.4933 23.2813 25.4842 23.3118 25.4476L31.0744 16.1439C31.1165 16.0935 31.0969 16.0171 31.0358 15.9933L27.8463 14.7498Z" stroke="#190A28" stroke-linecap="round"/>
<path d="M20.125 40.3748C20.125 38.3037 21.8039 36.6248 23.875 36.6248H41.6875C43.7586 36.6248 45.4375 38.3037 45.4375 40.3748C45.4375 42.4458 43.7586 44.1248 41.6875 44.1248H23.875C21.8039 44.1248 20.125 42.4458 20.125 40.3748Z" fill="white" stroke="#190A28"/>
<path d="M22.2945 30.7615H17.473V37.4433H22.2945V30.7615Z" fill="white" stroke="#190A28" stroke-linecap="round" stroke-linejoin="round"/>
<path d="M19.4958 32.2937C22.2104 32.2937 24.411 30.1153 24.411 27.4281C24.411 24.7409 22.2104 22.5625 19.4958 22.5625C16.7811 22.5625 14.5805 24.7409 14.5805 27.4281C14.5805 30.1153 16.7811 32.2937 19.4958 32.2937Z" fill="white" stroke="#190A28" stroke-linecap="round" stroke-linejoin="round"/>
<path d="M19.3729 29.1363C20.4221 29.1363 21.2727 28.2943 21.2727 27.2556C21.2727 26.217 20.4221 25.375 19.3729 25.375C18.3236 25.375 17.473 26.217 17.473 27.2556C17.473 28.2943 18.3236 29.1363 19.3729 29.1363Z" fill="white" stroke="#190A28" stroke-linecap="round" stroke-linejoin="round"/>
<path d="M24.3439 36.6248H14.9301L12.652 44.1247H26.6172L24.3439 36.6248Z" fill="#0074E8" stroke="#190A28" stroke-linecap="round" stroke-linejoin="round"/>
<path d="M26.8944 16.2792L29.0316 13.487C29.0642 13.4445 29.1252 13.4365 29.1674 13.4693L37.2467 19.7491L36.6203 23.067C36.6073 23.136 36.5273 23.1686 36.47 23.1283L26.9152 16.4162C26.8706 16.3849 26.8611 16.3226 26.8944 16.2792Z" fill="#0074E8"/>
<path d="M37.6175 20.0373L37.2467 19.7491M37.2467 19.7491L29.1674 13.4693C29.1252 13.4365 29.0642 13.4445 29.0316 13.487L26.8944 16.2792C26.8611 16.3226 26.8706 16.3849 26.9152 16.4162L36.47 23.1283C36.5273 23.1686 36.6073 23.136 36.6203 23.067L37.2467 19.7491Z" stroke="#190A28" stroke-linecap="round"/>
<path d="M39.0796 22.4078C40.5022 20.936 42.5377 22.12 43.5593 23.0481C43.6279 23.1104 43.7389 23.0527 43.7217 22.9616C43.2584 20.5063 41.3521 18.7486 39.8528 18.6168C37.4026 18.4015 36.3847 19.3124 35.7099 20.3965C33.5678 24.7665 37.3555 26.9878 39.9512 27.2085C40.041 27.2161 40.0853 27.1055 40.0199 27.0437C37.6915 24.8421 38.4599 23.049 39.0796 22.4078Z" fill="#0074E8" stroke="#190A28" stroke-linecap="round"/>
<path d="M28.9508 20.0756C31.0292 20.0756 32.7141 18.4077 32.7141 16.3503C32.7141 14.2929 31.0292 12.625 28.9508 12.625C26.8724 12.625 25.1875 14.2929 25.1875 16.3503C25.1875 18.4077 26.8724 20.0756 28.9508 20.0756Z" fill="white" stroke="#190A28" stroke-linecap="round" stroke-linejoin="round"/>
<path d="M29.0448 17.3976C29.5773 17.3976 30.009 16.9702 30.009 16.4431C30.009 15.9159 29.5773 15.4885 29.0448 15.4885C28.5122 15.4885 28.0805 15.9159 28.0805 16.4431C28.0805 16.9702 28.5122 17.3976 29.0448 17.3976Z" fill="white" stroke="#190A28" stroke-linecap="round" stroke-linejoin="round"/>
<ellipse cx="30.0614" cy="39.9931" rx="0.561226" ry="0.555556" fill="white" stroke="#190A28"/>
<ellipse cx="32.8505" cy="39.9931" rx="0.561226" ry="0.555556" fill="white" stroke="#190A28"/>
<ellipse cx="35.6396" cy="39.9931" rx="0.561226" ry="0.555556" fill="white" stroke="#190A28"/>
<path d="M11.6875 25.2076C11.6875 25.2076 12.2988 21.6153 15.3551 20.6875" stroke="#190A28" stroke-linecap="round" stroke-linejoin="round"/>
</svg>
