<svg width="57" height="56" viewBox="0 0 57 56" fill="none" xmlns="http://www.w3.org/2000/svg">
<circle cx="28.5" cy="28" r="26" fill="#EBF3FE"/>
<g clip-path="url(#clip0_11703_403459)">
<path d="M41.491 19.5046C40.7823 19.5046 40.0915 19.664 39.4714 19.9829C39.4183 17.5737 37.3456 15.625 34.7946 15.625C32.2437 15.625 30.1533 17.5737 30.1179 19.9829C29.4978 19.664 28.8069 19.5046 28.0983 19.5046C25.6536 19.5046 23.6696 21.4887 23.6696 23.9511C23.6696 26.2895 25.4765 28.2027 27.7617 28.3622V37.6803C27.7617 37.8752 27.9212 38.0169 28.0983 38.0169H41.491C41.6858 38.0169 41.8275 37.8575 41.8275 37.6803V28.3622C44.1128 28.185 45.9374 26.2718 45.9374 23.9511C45.9374 21.5064 43.9534 19.5046 41.491 19.5046Z" fill="white" stroke="#190A28" stroke-width="1.125" stroke-miterlimit="10" stroke-linecap="round" stroke-linejoin="round"/>
<path d="M41.1541 35.8611H28.4524" stroke="#190A28" stroke-width="1.125" stroke-miterlimit="10" stroke-linecap="round" stroke-linejoin="round"/>
<path d="M29.3741 27.937C29.3741 27.937 27.9923 28.6988 27.3014 28.2913" stroke="#190A28" stroke-width="1.125" stroke-miterlimit="10" stroke-linecap="round" stroke-linejoin="round"/>
<path d="M29.8171 34.0133C29.8171 31.8874 24.4494 31.3206 21.2784 31.3206C18.1074 31.3206 12.7397 31.8874 12.7397 34.0133C12.7397 34.8281 12.7397 37.4146 14.5998 39.2746C16.0525 40.7273 18.2846 41.4713 21.2784 41.4713C24.2723 41.4713 26.5044 40.7273 27.957 39.2746C29.8171 37.3968 29.8171 34.8281 29.8171 34.0133Z" fill="#0074E8" stroke="#190A28" stroke-width="1.125" stroke-miterlimit="10" stroke-linecap="round" stroke-linejoin="round"/>
<path d="M19.8541 26.07C19.5706 26.2294 19.4112 26.6369 19.5352 26.9912L19.7478 27.6467C19.8718 27.9832 19.8187 28.373 19.6238 28.6741" stroke="#190A28" stroke-width="1.125" stroke-miterlimit="10" stroke-linecap="round" stroke-linejoin="round"/>
<path d="M18.0296 26.07C17.7462 26.2294 17.5867 26.6369 17.7107 26.9912L17.9233 27.6467C18.0473 27.9832 17.9942 28.373 17.7993 28.6741" stroke="#190A28" stroke-width="1.125" stroke-miterlimit="10" stroke-linecap="round" stroke-linejoin="round"/>
<path d="M21.6968 26.07C21.4134 26.2294 21.2539 26.6369 21.3779 26.9912L21.5905 27.6467C21.7145 27.9832 21.6614 28.373 21.4665 28.6741" stroke="#190A28" stroke-width="1.125" stroke-miterlimit="10" stroke-linecap="round" stroke-linejoin="round"/>
<path d="M21.2784 35.3419C16.2119 35.3419 13.9975 34.1019 13.6786 33.6236C13.9975 33.1984 16.2651 31.9052 21.2784 31.9052C26.345 31.9052 28.5593 33.1453 28.8782 33.6236C28.5771 34.0665 26.3095 35.3419 21.2784 35.3419Z" fill="white" stroke="#190A28" stroke-width="1.125" stroke-miterlimit="10" stroke-linecap="round" stroke-linejoin="round"/>
<path d="M41.42 22.6131C41.42 22.6131 43.7718 22.3348 43.1873 25.1735L41.42 22.6131Z" fill="white"/>
<path d="M41.42 22.6131C41.42 22.6131 43.7718 22.3348 43.1873 25.1735" stroke="#190A28" stroke-width="1.125" stroke-miterlimit="10" stroke-linecap="round" stroke-linejoin="round"/>
<path d="M17.7849 34.9522C17.7849 34.9522 13.3978 29.5378 12.2533 27.3589C12.1433 27.1388 12.0553 25.9723 13.0017 26.6986C15.1366 28.3493 20.37 34.9572 20.37 34.9572" fill="white"/>
<path d="M17.7849 34.9522C17.7849 34.9522 13.3978 29.5378 12.2533 27.3589C12.1433 27.1388 12.0553 25.9723 13.0017 26.6986C15.1366 28.3493 20.37 34.9572 20.37 34.9572" stroke="#190A28" stroke-width="1.125" stroke-miterlimit="10" stroke-linecap="round" stroke-linejoin="round"/>
</g>
<defs>
<clipPath id="clip0_11703_403459">
<rect width="36" height="36" fill="white" transform="translate(10.5 10)"/>
</clipPath>
</defs>
</svg>
