<svg width="57" height="56" viewBox="0 0 57 56" fill="none" xmlns="http://www.w3.org/2000/svg">
<circle cx="28.5" cy="28" r="26" fill="#EBF3FE"/>
<ellipse cx="29.0994" cy="41.3224" rx="3.66516" ry="3.55263" fill="white" stroke="#190A28" stroke-width="1.125"/>
<path d="M41.0109 22.8455C41.0109 16.3813 35.6639 11.125 29.0971 11.125C22.53 11.125 17.1838 16.3816 17.1874 22.8455C17.1874 26.5658 18.9245 29.9836 21.9515 32.2187C23.234 33.167 23.9853 34.4685 24.1502 35.9934H34.0481C34.213 34.4682 34.9641 33.167 36.2468 32.2187C39.2739 29.9834 41.0109 26.5659 41.0109 22.8455Z" fill="white" stroke="#190A28" stroke-width="1.125"/>
<rect x="22.6852" y="35.9935" width="12.8281" height="2.66447" rx="0.55921" fill="white" stroke="#190A28" stroke-width="1.125"/>
<rect x="23.6017" y="38.6581" width="10.9955" height="2.66447" rx="0.55921" fill="white" stroke="#190A28" stroke-width="1.125"/>
<path d="M35.862 25.2107C35.8113 25.1383 35.7351 25.0659 35.659 25.0176L35.1766 24.704C35.1005 24.6557 35.0497 24.6075 34.9989 24.5351C34.6182 24.1973 34.3897 23.7389 34.3897 23.2081C34.3897 22.8462 34.5166 22.5085 34.7197 22.2189C34.8466 22.0259 34.9989 21.857 35.202 21.7364L35.6843 21.4227C35.7351 21.3986 35.7605 21.3504 35.7859 21.3262C36.0144 21.1091 36.0651 20.7713 35.9128 20.5059L34.9736 18.9377C34.9228 18.8653 34.872 18.8171 34.8212 18.7688L34.7959 18.7447C34.7705 18.7205 34.7197 18.6964 34.6943 18.6964C34.4912 18.5999 34.2628 18.5758 34.0343 18.6723L33.8312 18.7688L33.5012 18.9136C32.9427 19.1548 32.3081 19.1307 31.775 18.8412C31.6481 18.7688 31.5465 18.6964 31.445 18.5999L31.4196 18.5758C31.3942 18.5517 31.3688 18.5275 31.3688 18.5034C31.2927 18.431 31.2165 18.3345 31.1403 18.2621C30.988 18.0209 30.8865 17.7555 30.8611 17.466L30.7596 16.9352C30.7596 16.8145 30.7088 16.718 30.6326 16.6215C30.5057 16.4285 30.2772 16.3079 30.0234 16.3079H28.1195C27.7387 16.3079 27.4341 16.5974 27.3833 16.9593L27.3325 17.5142C27.3071 17.9002 27.1294 18.238 26.8756 18.5034C26.7487 18.6482 26.5963 18.7929 26.4186 18.8894C26.4186 18.8894 26.4187 18.8894 26.3933 18.8894C26.1394 19.0101 25.8856 19.0824 25.6063 19.1066C25.5809 19.1066 25.5555 19.1066 25.5302 19.1066C25.3525 19.1066 25.1748 19.0824 25.0224 19.0583C24.8955 19.0342 24.794 18.9859 24.6671 18.9377L24.464 18.8412L24.134 18.6964C23.9563 18.624 23.7786 18.624 23.6262 18.6482C23.4485 18.6964 23.2962 18.7929 23.1947 18.9618L22.2554 20.5301C22.0524 20.8437 22.1539 21.2539 22.4839 21.4469L22.8139 21.664L22.9662 21.7605C23.0932 21.8329 23.1947 21.9294 23.2962 22.05C23.6009 22.3637 23.7786 22.798 23.7786 23.2323C23.7786 23.6183 23.6262 24.0043 23.3724 24.318C23.2455 24.4627 23.1185 24.5834 22.9662 24.704L22.8139 24.8005L22.4839 25.0176C22.1793 25.2107 22.0777 25.6208 22.2554 25.9345L23.1947 27.5027C23.2455 27.5992 23.347 27.6716 23.4486 27.7199C23.6516 27.8405 23.9055 27.8887 24.1593 27.7681L24.6924 27.5268C24.9717 27.4062 25.2509 27.358 25.5555 27.358C25.8602 27.358 26.1394 27.4545 26.3933 27.5992C26.444 27.6233 26.4948 27.6716 26.5456 27.6957C26.9771 27.9852 27.2818 28.4437 27.3071 28.9986L27.3579 29.5535C27.3833 29.9154 27.7133 30.2049 28.0941 30.2049H29.998C30.2011 30.2049 30.3534 30.1325 30.5057 30.0119C30.6326 29.8913 30.7342 29.7465 30.7342 29.5535L30.7849 28.9986C30.8103 28.5643 31.0134 28.1783 31.3434 27.8646L31.3688 27.8405C31.4704 27.744 31.5719 27.6716 31.6988 27.5992C31.9527 27.4786 32.2065 27.4062 32.4858 27.3821C32.5112 27.3821 32.5365 27.3821 32.5619 27.3821H32.5873C32.8666 27.3821 33.1458 27.4303 33.425 27.551L33.9581 27.7922C34.2628 27.937 34.6182 27.8405 34.8212 27.5992C34.8466 27.5751 34.872 27.551 34.8974 27.5268L35.8367 25.9586C36.0397 25.7173 36.0144 25.4278 35.862 25.2107Z" fill="#0074E8" stroke="#190A28" stroke-width="1.125" stroke-miterlimit="10" stroke-linecap="round" stroke-linejoin="round"/>
<path d="M30.6966 25.5158C30.2462 25.8548 29.6832 26.0356 29.0752 26.0356C27.5439 26.0356 26.3054 24.7701 26.3054 23.2561C26.3054 21.7421 27.5664 20.4767 29.0752 20.4767C29.8408 20.4767 30.5389 20.793 31.0343 21.2902C31.5298 21.7873 31.845 22.5104 31.845 23.2561C31.8225 24.2052 31.3721 24.9961 30.6966 25.5158Z" fill="white" stroke="#190A28" stroke-width="1.125" stroke-miterlimit="10" stroke-linecap="round" stroke-linejoin="round"/>
</svg>
