<svg width="57" height="56" viewBox="0 0 57 56" fill="none" xmlns="http://www.w3.org/2000/svg">
<circle cx="28.5" cy="28" r="26" fill="#EBF3FE"/>
<g clip-path="url(#clip0_11703_404351)">
<rect x="14" y="19.0001" width="23.9996" height="17.9997" rx="1.11111" fill="white" stroke="#190A28"/>
<path d="M14 33.25H37.9996V35.8888C37.9996 36.5025 37.5022 36.9999 36.8885 36.9999H15.1111C14.4975 36.9999 14 36.5025 14 35.8888V33.25Z" fill="#0074E8" stroke="#190A28"/>
<path d="M43.8956 22.7263C43.8571 22.6717 43.7994 22.617 43.7416 22.5805L43.3759 22.3435C43.3182 22.3071 43.2797 22.2706 43.2412 22.2159C42.9525 21.9607 42.7793 21.6144 42.7793 21.2133C42.7793 20.9399 42.8755 20.6847 43.0295 20.466C43.1257 20.3201 43.2412 20.1925 43.3952 20.1014L43.7609 19.8644C43.7994 19.8462 43.8186 19.8097 43.8378 19.7915C44.0111 19.6274 44.0496 19.3722 43.9341 19.1717L43.222 17.9868C43.1835 17.9321 43.145 17.8957 43.1065 17.8592L43.0872 17.841C43.068 17.8228 43.0295 17.8045 43.0103 17.8045C42.8563 17.7316 42.6831 17.7134 42.5098 17.7863L42.3559 17.8592L42.1057 17.9686C41.6823 18.1509 41.2011 18.1327 40.7969 17.9139C40.7007 17.8592 40.6237 17.8045 40.5467 17.7316L40.5275 17.7134C40.5082 17.6952 40.489 17.6769 40.489 17.6587C40.4312 17.604 40.3735 17.5311 40.3158 17.4764C40.2003 17.2941 40.1233 17.0936 40.104 16.8749L40.0271 16.4738C40.0271 16.3827 39.9886 16.3098 39.9308 16.2369C39.8346 16.091 39.6614 15.9999 39.4689 15.9999H38.0254C37.7367 15.9999 37.5058 16.2186 37.4673 16.4921L37.4288 16.9113C37.4095 17.203 37.2748 17.4582 37.0824 17.6587C36.9861 17.7681 36.8706 17.8775 36.7359 17.9504C36.7359 17.9504 36.7359 17.9504 36.7167 17.9504C36.5242 18.0415 36.3318 18.0962 36.12 18.1144C36.1008 18.1144 36.0815 18.1144 36.0623 18.1144C35.9276 18.1144 35.7929 18.0962 35.6774 18.078C35.5811 18.0597 35.5042 18.0233 35.4079 17.9868L35.254 17.9139L35.0037 17.8045C34.869 17.7499 34.7343 17.7499 34.6188 17.7681C34.4841 17.8045 34.3686 17.8775 34.2916 18.0051L33.5795 19.1899C33.4255 19.4269 33.5025 19.7368 33.7527 19.8826L34.0029 20.0467L34.1184 20.1196C34.2146 20.1743 34.2916 20.2472 34.3686 20.3384C34.5996 20.5753 34.7343 20.9035 34.7343 21.2316C34.7343 21.5232 34.6188 21.8149 34.4264 22.0519C34.3301 22.1612 34.2339 22.2524 34.1184 22.3435L34.0029 22.4164L33.7527 22.5805C33.5218 22.7263 33.4448 23.0362 33.5795 23.2732L34.2916 24.4581C34.3301 24.531 34.4071 24.5857 34.4841 24.6221C34.6381 24.7133 34.8305 24.7497 35.023 24.6586L35.4272 24.4763C35.6389 24.3852 35.8506 24.3487 36.0815 24.3487C36.3125 24.3487 36.5242 24.4216 36.7167 24.531C36.7552 24.5492 36.7937 24.5857 36.8322 24.6039C37.1593 24.8227 37.3903 25.169 37.4095 25.5883L37.448 26.0075C37.4673 26.281 37.7175 26.4997 38.0062 26.4997H39.4497C39.6036 26.4997 39.7191 26.445 39.8346 26.3539C39.9308 26.2627 40.0078 26.1534 40.0078 26.0075L40.0463 25.5883C40.0656 25.2602 40.2195 24.9685 40.4697 24.7315L40.489 24.7133C40.566 24.6404 40.6429 24.5857 40.7392 24.531C40.9316 24.4399 41.1241 24.3852 41.3358 24.3669C41.3551 24.3669 41.3743 24.3669 41.3936 24.3669H41.4128C41.6245 24.3669 41.8362 24.4034 42.0479 24.4945L42.4521 24.6768C42.6831 24.7862 42.9525 24.7133 43.1065 24.531C43.1257 24.5128 43.145 24.4945 43.1642 24.4763L43.8763 23.2914C44.0303 23.1091 44.0111 22.8904 43.8956 22.7263Z" fill="#0074E8" stroke="#190A28" stroke-miterlimit="10" stroke-linecap="round" stroke-linejoin="round"/>
<path d="M39.9794 22.957C39.6379 23.2131 39.2111 23.3497 38.7501 23.3497C37.5891 23.3497 36.6501 22.3936 36.6501 21.2497C36.6501 20.1058 37.6062 19.1497 38.7501 19.1497C39.3306 19.1497 39.8598 19.3887 40.2354 19.7643C40.6111 20.1399 40.8501 20.6862 40.8501 21.2497C40.833 21.9667 40.4915 22.5643 39.9794 22.957Z" fill="white" stroke="#190A28" stroke-miterlimit="10" stroke-linecap="round" stroke-linejoin="round"/>
<path d="M24.4999 37H27.4999L27.9999 40H23.9999L24.4999 37Z" stroke="#190A28"/>
<path d="M23 39.9999H28.9999" stroke="#190A28" stroke-linecap="round"/>
<path d="M19.4963 23.5L17.8286 25.1678C17.7852 25.2112 17.7852 25.2815 17.8286 25.3249L19.4963 26.9926" stroke="#190A28" stroke-linecap="round"/>
<path d="M24.2536 23.5L25.9213 25.1678C25.9647 25.2112 25.9647 25.2815 25.9213 25.3249L24.2536 26.9926" stroke="#190A28" stroke-linecap="round"/>
<path d="M22.6249 23.1251L21.1249 27.2501" stroke="#190A28" stroke-linecap="round"/>
<path d="M17.75 29.5H25.9999" stroke="#190A28" stroke-linecap="round"/>
<path d="M28.9998 29.5H32.7497" stroke="#190A28" stroke-linecap="round"/>
</g>
<defs>
<clipPath id="clip0_11703_404351">
<rect width="32" height="32" fill="white" transform="translate(12.5 12)"/>
</clipPath>
</defs>
</svg>
